<svg width="100" height="100" fill="none" xmlns="http://www.w3.org/2000/svg"><path fill="#FE9191" d="M0 0h100v100H0z"/><g clip-path="url(#clip0)" fill="#FFE2E2"><path d="M89.922 33.52c-.188-4.25-.875-7.173-1.86-9.705a19.522 19.522 0 00-4.626-7.095c-2-2.032-4.423-3.61-7.08-4.61-2.546-.985-5.453-1.672-9.704-1.86-4.283-.203-5.642-.25-16.504-.25-10.861 0-12.22.047-16.487.234-4.25.188-7.173.876-9.705 1.86a19.518 19.518 0 00-7.095 4.626c-2.032 2-3.61 4.423-4.61 7.08-.985 2.547-1.673 5.454-1.86 9.704-.203 4.283-.25 5.642-.25 16.504 0 10.861.047 12.22.234 16.487.188 4.251.876 7.173 1.86 9.706a19.728 19.728 0 004.626 7.095c2 2.031 4.422 3.61 7.08 4.61 2.547.984 5.453 1.672 9.705 1.86 4.265.187 5.626.234 16.487.234 10.862 0 12.221-.047 16.488-.235 4.25-.187 7.173-.874 9.704-1.86a20.462 20.462 0 0011.706-11.704c.984-2.548 1.672-5.455 1.86-9.706.187-4.266.234-5.626.234-16.487 0-10.862-.016-12.221-.203-16.488zm-7.204 32.663c-.172 3.907-.829 6.017-1.376 7.423a13.27 13.27 0 01-7.595 7.596c-1.407.547-3.532 1.203-7.424 1.374-4.22.189-5.485.235-16.159.235s-11.955-.047-16.16-.235c-3.906-.171-6.016-.827-7.423-1.374a12.31 12.31 0 01-4.594-2.986 12.437 12.437 0 01-2.985-4.594c-.547-1.406-1.204-3.532-1.375-7.423-.188-4.22-.235-5.486-.235-16.16s.047-11.956.235-16.16c.171-3.906.828-6.016 1.375-7.422a12.16 12.16 0 013-4.596 12.418 12.418 0 014.595-2.984c1.407-.547 3.532-1.203 7.423-1.375 4.22-.188 5.486-.235 16.16-.235 10.69 0 11.955.047 16.16.235 3.906.172 6.016.828 7.423 1.375a12.302 12.302 0 014.594 2.984 12.436 12.436 0 012.985 4.595c.547 1.407 1.204 3.532 1.376 7.424.187 4.22.234 5.485.234 16.159s-.047 11.924-.234 16.144z"/><path d="M50.148 29.457c-11.345 0-20.55 9.205-20.55 20.55 0 11.347 9.205 20.552 20.55 20.552 11.347 0 20.551-9.205 20.551-20.551 0-11.346-9.204-20.551-20.55-20.551zm0 33.882c-7.36 0-13.33-5.97-13.33-13.331s5.97-13.33 13.33-13.33c7.362 0 13.331 5.969 13.331 13.33s-5.97 13.33-13.33 13.33zM76.31 28.644a4.798 4.798 0 11-9.595 0 4.798 4.798 0 019.596 0z"/></g><defs><clipPath id="clip0"><path fill="#fff" transform="translate(10 10)" d="M0 0h80v80H0z"/></clipPath></defs></svg>