<svg width="30" height="18" fill="none" xmlns="http://www.w3.org/2000/svg"><path d="M24.895 10.322c-.485-.63-.347-.91 0-1.474.006-.006 4.01-5.697 4.422-7.627h.003C29.525.516 29.32 0 28.328 0h-3.28c-.835 0-1.22.444-1.426.94 0 0-1.67 4.112-4.033 6.777-.762.77-1.115 1.017-1.53 1.017-.206 0-.525-.247-.525-.95V1.22c0-.843-.233-1.22-.925-1.22h-5.157c-.524 0-.835.393-.835.76 0 .8 1.18.983 1.303 3.233v4.882c0 1.07-.188 1.267-.607 1.267-1.115 0-3.821-4.129-5.425-8.854C5.564.372 5.248.001 4.406.001H1.125C.189.001 0 .445 0 .941c0 .877 1.115 5.237 5.185 10.997C7.898 15.87 11.718 18 15.193 18c2.089 0 2.344-.473 2.344-1.287 0-3.757-.189-4.112.857-4.112.485 0 1.32.247 3.27 2.144C23.895 16.993 24.26 18 25.508 18h3.28c.935 0 1.409-.473 1.137-1.407-.624-1.963-4.84-6.001-5.03-6.271z" fill="#313131"/></svg>