<svg width="21" height="21" fill="none" xmlns="http://www.w3.org/2000/svg"><g clip-path="url(#clip0)" fill="#313131"><path d="M20.98 6.174c-.05-1.116-.23-1.883-.488-2.548a5.125 5.125 0 00-1.215-1.862A5.168 5.168 0 0017.42.554C16.75.295 15.987.114 14.87.066 13.747.012 13.391 0 10.54 0 7.688 0 7.331.012 6.211.062 5.095.11 4.328.292 3.664.55A5.124 5.124 0 001.8 1.764a5.17 5.17 0 00-1.21 1.858C.332 4.292.152 5.054.103 6.17.049 7.294.037 7.65.037 10.502c0 2.851.012 3.208.062 4.328.049 1.116.23 1.883.488 2.548.267.705.68 1.337 1.214 1.862a5.168 5.168 0 001.859 1.21c.668.259 1.431.44 2.547.488 1.12.05 1.477.062 4.328.062s3.208-.012 4.328-.062c1.116-.049 1.883-.23 2.548-.488a5.372 5.372 0 003.072-3.072c.259-.669.44-1.432.488-2.548.05-1.12.062-1.477.062-4.328s-.004-3.208-.053-4.328zm-1.891 8.574c-.046 1.026-.218 1.58-.361 1.949a3.483 3.483 0 01-1.994 1.993c-.37.144-.927.316-1.949.361-1.107.05-1.44.062-4.242.062s-3.138-.012-4.242-.062c-1.025-.045-1.579-.217-1.948-.36a3.23 3.23 0 01-1.206-.784 3.264 3.264 0 01-.784-1.206c-.143-.37-.316-.927-.36-1.949-.05-1.107-.062-1.44-.062-4.242s.012-3.138.061-4.242c.045-1.025.218-1.579.361-1.948.168-.456.435-.87.788-1.206a3.26 3.26 0 011.206-.784c.37-.143.927-.316 1.949-.36 1.107-.05 1.44-.062 4.241-.062 2.806 0 3.139.012 4.242.061 1.026.045 1.58.218 1.949.361.455.168.87.435 1.206.784.349.34.615.75.784 1.206.143.369.315.927.36 1.948.05 1.108.062 1.44.062 4.242s-.012 3.13-.061 4.238z"/><path d="M10.54 5.107a5.396 5.396 0 00-5.395 5.395 5.396 5.396 0 105.395-5.395zm0 8.894a3.5 3.5 0 110-7 3.5 3.5 0 010 7zM17.406 4.894a1.26 1.26 0 11-2.52 0 1.26 1.26 0 012.52 0z"/></g><defs><clipPath id="clip0"><path fill="#fff" d="M0 0h21v21H0z"/></clipPath></defs></svg>