<svg width="21" height="19" fill="none" xmlns="http://www.w3.org/2000/svg"><path d="M9.618 3.81l.882 1.652.882-1.652c.31-.58.82-1.343 1.556-1.926.75-.595 1.577-.884 2.484-.884C17.952 1 20 3.116 20 6.2c0 1.61-.617 3.003-1.84 4.515-1.247 1.543-3.051 3.123-5.338 5.12h0-.001c-.703.614-1.495 1.306-2.321 2.043a281.956 281.956 0 00-2.319-2.04l-.002-.003h0c-2.287-1.997-4.092-3.577-5.34-5.12C1.618 9.203 1 7.81 1 6.2 1 3.116 3.047 1 5.578 1c.907 0 1.734.29 2.484.884.736.583 1.246 1.346 1.556 1.926z" stroke="#FFE2E2" stroke-width="2"/></svg>