<svg width="344" height="60" fill="none" xmlns="http://www.w3.org/2000/svg"><path d="M91.235 44.936c.447 0 .841.015 1.179.05.337.033.629.067.875.109.25.042.466.087.648.144.182.057.349.106.493.155l.023 2.373h-.288c0-.655-.224-1.17-.675-1.548-.447-.375-1.144-.564-2.088-.564-.8 0-1.486.22-2.054.659-.569.439-.845.98-.83 1.62 0 .208.027.42.083.635.057.216.152.428.288.636.137.208.323.417.565.625l4.85 3.743c.368.303.641.693.816 1.162.174.473.272.938.288 1.404a3.362 3.362 0 01-.554 1.941 4.112 4.112 0 01-1.55 1.405 4.505 4.505 0 01-2.148.514c-.467 0-.967-.041-1.501-.12a7.776 7.776 0 01-1.5-.372c-.467-.166-.85-.378-1.153-.636a4.072 4.072 0 01-.072-.851c0-.345.027-.708.083-1.09.057-.382.133-.727.228-1.033h.288c-.064.719.042 1.336.315 1.847.272.51.67.9 1.2 1.162.528.264 1.145.386 1.85.37.993-.034 1.774-.283 2.342-.757.569-.473.853-1.097.853-1.88 0-.383-.068-.731-.205-1.045a2.589 2.589 0 00-.66-.874l-4.8-3.694c-.448-.383-.755-.806-.914-1.272a4.08 4.08 0 01-.239-1.32c0-.656.175-1.25.53-1.776a3.788 3.788 0 011.43-1.26 4.33 4.33 0 012.004-.462zm3.168.216l.023.431h-1.705v-.431h1.682zM137.17 46.806h-.072a1.3 1.3 0 00-.421-.923 1.377 1.377 0 00-.974-.37h-.288v-.24h1.755v1.533zm0 11.32v1.534h-1.755v-.239h.288c.383 0 .709-.129.974-.382.265-.254.402-.56.421-.912h.072zm1.466-12.852v14.39h-1.538v-14.39h1.538zm9.099 6.93v.719h-9.364v-.72h9.364zm-9.171-5.398v-1.532h1.755v.238h-.288c-.383 0-.713.125-.986.371-.272.25-.409.556-.409.923h-.072zm0 11.32h.072c0 .353.137.655.409.913.273.257.599.382.986.382h.288v.239h-1.755v-1.533zm9.004-11.32h-.072a1.294 1.294 0 00-.42-.923 1.377 1.377 0 00-.971-.37h-.288v-.24h1.755v1.533h-.004zm0 11.32v1.534h-1.754v-.239h.288c.382 0 .708-.129.97-.382.265-.254.405-.56.42-.912h.076zm1.467-12.852v14.39h-1.539v-14.39h1.539zm-.076 1.532v-1.532h1.755v.238h-.288c-.383 0-.709.125-.97.371-.266.25-.406.556-.421.923h-.076zm0 11.32h.072c.015.353.155.655.421.913.265.257.587.382.97.382h.288v.239h-1.755v-1.533h.004zM198.33 44.937a9.14 9.14 0 013.157.537c.985.36 1.849.874 2.592 1.548a7.204 7.204 0 011.74 2.388c.417.92.625 1.938.625 3.058 0 1.12-.208 2.138-.625 3.058a7.204 7.204 0 01-1.74 2.388 7.853 7.853 0 01-2.592 1.548 9.142 9.142 0 01-3.157.538 9.034 9.034 0 01-3.145-.538 7.81 7.81 0 01-2.581-1.548 7.108 7.108 0 01-1.739-2.388c-.417-.92-.625-1.938-.625-3.058 0-1.12.208-2.138.625-3.058a7.201 7.201 0 011.739-2.388 7.848 7.848 0 012.581-1.548 9.12 9.12 0 013.145-.537zm0 14.34c1.183 0 2.259-.288 3.218-.863.959-.575 1.72-1.374 2.281-2.4.561-1.021.841-2.206.841-3.55 0-1.358-.28-2.547-.841-3.561a6.25 6.25 0 00-2.281-2.384c-.959-.576-2.031-.863-3.218-.863-1.167 0-2.232.287-3.194.863a6.253 6.253 0 00-2.282 2.384c-.561 1.014-.841 2.203-.841 3.561 0 1.344.28 2.529.841 3.55.561 1.022 1.323 1.825 2.282 2.4.962.575 2.027.863 3.194.863zM247.747 46.784h-.049a1.253 1.253 0 00-.421-.912 1.4 1.4 0 00-.974-.36h-.337v-.238h2.088l-.307 1.51zm0 11.343l.311 1.532h-2.088v-.238h.337c.383 0 .709-.129.974-.382.265-.254.402-.56.421-.912h.045zm1.49-12.853v14.39h-1.539v-14.39h1.539zm-.072 12.853h.049c.015.352.155.654.42.912.266.257.588.382.971.382h.337v.239h-2.088l.311-1.533zm2.425-12.853c1.118 0 2.088.162 2.907.492.814.329 1.447.798 1.898 1.415.447.617.671 1.348.671 2.195 0 .913-.205 1.692-.614 2.34a4.082 4.082 0 01-1.622 1.487c-.674.344-1.417.51-2.232.503-.815-.008-1.633-.212-2.448-.613v-.239c.527.095 1 .14 1.417.133.417-.008.857-.08 1.323-.216a3.323 3.323 0 001.307-.757c.409-.367.732-.897.97-1.582.065-.174.106-.382.133-.624.023-.239.038-.462.038-.67 0-.977-.337-1.741-1.008-2.301s-1.599-.84-2.786-.84h-2.353c-.079-.239-.17-.481-.265-.72h2.664v-.003zM.959 27.337H0V16.161h.959c0 3.005 1.08 5.563 3.24 7.675S8.993 27 12.1 27c1.281 0 2.312-.374 3.096-1.128.785-.749 1.179-1.752 1.179-2.997 0-1.408-.913-2.604-2.736-3.596-.993-.51-2.706-1.317-5.139-2.422-2.433-1.105-4.146-2.04-5.139-2.804C1.376 12.52.504 10.487.743 7.963.982 5.44 1.937 3.478 3.6 2.09 5.264.696 7.147.004 9.243.004c2.1 0 3.987.28 5.67.84 1.678.56 2.633.84 2.857.84.64 0 .958-.56.958-1.68h.96V8.78h-.96c0-2.302-.849-4.183-2.546-5.636C14.484 1.692 12.309.961 9.652.961c-1.186 0-2.114.345-2.785 1.03-.675.689-1.008 1.446-1.008 2.278 0 .833.11 1.472.333 1.92.224.446.618.854 1.179 1.222.56.367 1.05.662 1.463.889.413.227 1.083.522 1.993.908.913.383 1.542.655 1.899.814 1.758.799 2.8 1.272 3.122 1.415.319.144.785.375 1.395.697.61.322 1.065.61 1.368.863.303.257.697.575 1.175.957.48.383.833.776 1.057 1.174.224.4.447.855.674 1.366.448 1.026.607 2.222.482 3.595-.258 2.59-1.224 4.565-2.907 5.924-1.682 1.362-3.949 2.043-6.798 2.043-2.562 0-5.105-.655-7.637-1.968-.864-.446-1.504-.67-1.92-.67-1.187 0-1.778.64-1.778 1.92zM70.548 8.634c0-2.847-.474-4.758-1.418-5.73-.943-.977-2.713-1.465-5.309-1.465h-1.44V26.38h3.362v.958H51.816v-.958h3.361V1.44h-1.44c-2.562 0-4.317.488-5.26 1.464-.944.977-1.417 2.888-1.417 5.73h-.96V.478h25.407V8.63h-.96v.004zM124.095 26.38v.957h-12.631v-.957h2.835l-3.217-6.67h-9.702l-2.785 6.67h3.793v.957h-8.212v-.957h3.217L108.391 0h1.201l12.199 26.38h2.304zm-22.283-7.676h8.788l-4.706-9.783-4.082 9.783zM175.721 27.818h-2.114c-4.002 0-6.788-.863-8.356-2.588-1.251-1.344-2.1-3.12-2.547-5.326a34.037 34.037 0 00-.625-2.543c-.512-1.726-1.554-2.589-3.123-2.589h-2.115V26.38h2.403v.958h-12.006v-.958h2.403V1.44h-2.403V.48h12.635c8.163 0 12.248 2.38 12.248 7.146 0 1.888-.69 3.421-2.065 4.606-1.38 1.184-3.138 1.775-5.283 1.775v.337c3.202 0 5.427 2.111 6.677 6.332.641 2.236 1.289 3.83 1.944 4.772.656.942 1.433 1.415 2.327 1.415v.954zm-18.872-26.38v12.377c3.202 0 5.347-.462 6.435-1.393 1.087-.927 1.633-2.479 1.633-4.651 0-2.173-.561-3.774-1.683-4.796-1.121-1.025-3.247-1.536-6.385-1.536zM197.91 1.439V.48h14.071v.958h-2.354l6.579 14.82 3.074-7.626-3.218-7.194h-1.823V.48h13.158v.958h-2.259l6.435 14.628 5.09-14.628h-3.839V.48h8.261v.958h-3.267l-8.981 25.899h-1.152l.193-.526-.239.526-7.73-17.365-6.97 17.365h-1.152l-11.573-25.9h-2.304zM293.192 26.38v.957h-12.631v-.957h2.835l-3.217-6.67h-9.702l-2.785 6.67h3.793v.957h-8.212v-.957h3.218L277.488 0h1.201l12.199 26.38h2.304zm-22.287-7.676h8.789l-4.707-9.783-4.082 9.783zM335.595 27.338h-11.047v-.958h1.921V16.256l-8.595-14.821h-2.497V.477h13.445v.958h-2.353l6.723 12.088 6.245-12.088h-3.842V.477H344v.958h-3.361l-6.966 13.527v11.414h1.922v.962z" fill="#313131"/></svg>