<svg width="161" height="30" fill="none" xmlns="http://www.w3.org/2000/svg"><path d="M42.702 22.959c.208 0 .393.006.55.022.157.017.291.034.409.05.118.018.219.04.303.068.084.028.162.05.23.073l.01 1.11h-.134c0-.308-.106-.55-.314-.723-.207-.174-.532-.264-.975-.264-.376 0-.695.101-.959.309-.263.207-.392.46-.387.756a1.083 1.083 0 00.174.594c.062.096.151.197.264.292l2.265 1.75c.173.14.297.325.38.543.085.219.13.438.135.656.006.33-.078.634-.258.908-.179.275-.42.494-.723.656A2.09 2.09 0 0142.67 30c-.219 0-.449-.017-.701-.056a3.765 3.765 0 01-.7-.174 1.752 1.752 0 01-.54-.297 1.953 1.953 0 01-.033-.398c0-.162.011-.33.04-.51.028-.18.061-.342.106-.482h.135c-.028.336.016.622.145.863.13.241.314.42.561.544.247.123.533.18.863.174.466-.017.83-.135 1.094-.353.263-.219.398-.516.398-.88 0-.18-.034-.342-.096-.488a1.214 1.214 0 00-.308-.41l-2.242-1.726c-.208-.18-.354-.376-.427-.594a1.944 1.944 0 01-.112-.617c0-.308.084-.583.247-.83.163-.246.387-.443.667-.588.28-.146.594-.219.936-.219zm1.48.1l.012.203h-.797v-.202h.785zM64.153 23.832h-.034a.6.6 0 00-.196-.431.63.63 0 00-.455-.174h-.134v-.112h.819v.717zm0 5.293v.717h-.819v-.112h.134c.18 0 .331-.062.455-.18a.607.607 0 00.196-.425h.034zm.683-6.01v6.727h-.717v-6.727h.717zm4.25 3.24v.337h-4.373v-.337h4.373zm-4.283-2.523v-.717h.818v.112h-.134c-.18 0-.331.056-.46.174a.554.554 0 00-.19.431h-.034zm0 5.293h.033a.56.56 0 00.191.426c.129.117.28.18.46.18h.134v.111h-.818v-.717zm4.204-5.293h-.033a.6.6 0 00-.196-.431.63.63 0 00-.455-.174h-.134v-.112h.819v.717zm0 5.293v.717h-.818v-.112h.135c.179 0 .33-.062.454-.18a.607.607 0 00.196-.425h.033zm.684-6.01v6.727h-.717v-6.727h.717zm-.033.717v-.717h.818v.112h-.134a.63.63 0 00-.454.174.6.6 0 00-.197.431h-.033zm0 5.293h.033a.607.607 0 00.197.426c.123.117.274.18.454.18h.134v.111h-.818v-.717zM92.71 22.959c.522 0 1.015.084 1.475.252.46.168.863.409 1.21.723.348.314.617.684.814 1.116.196.431.291.908.291 1.43 0 .52-.095.997-.291 1.429a3.35 3.35 0 01-.813 1.115 3.666 3.666 0 01-1.211.724c-.46.168-.953.252-1.475.252a4.21 4.21 0 01-1.469-.252 3.697 3.697 0 01-1.205-.724 3.35 3.35 0 01-.813-1.115 3.412 3.412 0 01-.291-1.43c0-.521.095-.998.291-1.43.196-.431.466-.801.813-1.115a3.695 3.695 0 011.205-.723 4.21 4.21 0 011.47-.252zm0 6.704a2.86 2.86 0 001.503-.403 2.93 2.93 0 001.065-1.121c.263-.477.392-1.032.392-1.66 0-.633-.129-1.188-.392-1.665a2.914 2.914 0 00-1.065-1.116 2.86 2.86 0 00-1.503-.403c-.544 0-1.042.134-1.491.403-.448.27-.802.64-1.065 1.116-.264.477-.393 1.032-.393 1.665 0 .628.13 1.183.393 1.66a2.93 2.93 0 001.065 1.12c.449.27.947.404 1.491.404zM115.785 23.821h-.023a.576.576 0 00-.196-.426.65.65 0 00-.454-.168h-.157v-.112h.976l-.146.706zm0 5.304l.146.717h-.976v-.112h.157a.635.635 0 00.454-.18.606.606 0 00.196-.425h.023zm.695-6.01v6.727h-.718v-6.727h.718zm-.034 6.01h.023a.606.606 0 00.196.426c.123.117.275.18.454.18h.157v.111h-.975l.145-.717zm1.133-6.01c.521 0 .975.078 1.356.23.382.151.679.375.886.661.208.286.314.628.314 1.026 0 .426-.095.79-.286 1.093-.19.303-.443.533-.757.695a2.157 2.157 0 01-1.042.236 2.69 2.69 0 01-1.144-.286v-.112c.247.045.465.067.662.061.196-.005.398-.039.616-.1.219-.062.421-.18.611-.354.191-.173.342-.42.454-.74.028-.084.051-.179.062-.291.011-.112.017-.219.017-.314 0-.454-.157-.813-.471-1.076-.314-.264-.746-.393-1.301-.393h-1.098c-.04-.112-.079-.224-.124-.336h1.245zM.448 12.782H0V7.557h.448c0 1.407.505 2.601 1.514 3.588 1.01.987 2.237 1.48 3.689 1.48.6 0 1.082-.174 1.446-.527.365-.353.55-.818.55-1.401 0-.656-.426-1.217-1.278-1.682a58.08 58.08 0 00-2.4-1.133c-1.138-.515-1.934-.953-2.4-1.312C.646 5.853.236 4.905.349 3.723.46 2.54.903 1.626 1.682.975 2.462.325 3.336 0 4.317 0c.98 0 1.861.129 2.646.392.785.264 1.228.393 1.334.393.297 0 .449-.264.449-.785h.448v4.104h-.448c0-1.077-.398-1.957-1.189-2.635-.79-.679-1.81-1.02-3.05-1.02-.555 0-.986.162-1.3.482-.314.325-.471.678-.471 1.065 0 .387.05.69.157.897.106.207.286.398.55.572.263.173.487.308.683.414.196.107.505.247.93.427.427.179.724.308.887.38.824.376 1.306.595 1.457.662.152.068.365.174.65.325.286.152.5.286.64.404.14.118.325.27.549.449.224.179.387.364.493.549.107.185.208.398.314.64.208.476.286 1.036.225 1.681-.118 1.21-.572 2.136-1.357 2.77-.785.633-1.845.952-3.173.952-1.194 0-2.383-.308-3.566-.919-.403-.207-.7-.314-.897-.314-.555 0-.83.303-.83.897zM32.942 4.037c0-1.329-.22-2.226-.662-2.68-.443-.454-1.267-.684-2.478-.684h-.673v11.661h1.57v.449h-6.503v-.449h1.57V.674h-.673c-1.194 0-2.013.229-2.456.683-.442.454-.661 1.351-.661 2.68h-.449V.225H33.39v3.812h-.448zM57.945 12.334v.448h-5.898v-.448h1.324l-1.503-3.117h-4.53l-1.3 3.117h1.771v.448h-3.834v-.448h1.502L50.612 0h.561l5.696 12.334h1.076zM47.54 8.746h4.104L49.446 4.17 47.54 8.746zM82.052 13.007h-.987c-1.867 0-3.167-.404-3.902-1.211-.583-.628-.98-1.458-1.188-2.49-.09-.431-.185-.83-.292-1.188-.24-.807-.723-1.21-1.457-1.21h-.987v5.426h1.121v.449h-5.606v-.449h1.121V.674h-1.121v-.45h5.898c3.812 0 5.718 1.116 5.718 3.342 0 .88-.32 1.598-.964 2.153-.645.555-1.464.83-2.467.83v.156c1.497 0 2.534.987 3.117 2.96.297 1.049.6 1.789.908 2.232.308.443.667.661 1.088.661v.449zM73.239.673V6.46c1.497 0 2.495-.219 3.005-.65.51-.432.762-1.161.762-2.176 0-1.015-.263-1.766-.785-2.242C75.7.914 74.702.673 73.24.673zM92.412.673V.225h6.57v.448h-1.098l3.072 6.93 1.435-3.566-1.502-3.364h-.852V.225h6.144v.448h-1.054l3.005 6.84 2.377-6.84h-1.794V.225h3.857v.448h-1.525l-4.193 12.11h-.539l.09-.247-.112.247-3.61-8.118-3.252 8.117h-.538L93.489.674h-1.077zM136.902 12.334v.448h-5.897v-.448h1.323l-1.503-3.117h-4.53l-1.3 3.117h1.771v.448h-3.834v-.448h1.502L129.569 0h.561l5.696 12.334h1.076zm-10.405-3.588h4.104l-2.198-4.575-1.906 4.575zM156.705 12.783h-5.158v-.449h.897V7.602L148.43.673h-1.166V.225h6.279v.448h-1.099l3.139 5.651 2.915-5.65h-1.793v-.45h3.924v.45h-1.57l-3.251 6.323v5.337h.897v.449z" fill="#313131"/></svg>